<mxfile host="app.diagrams.net" agent="Mozilla/5.0 (Windows NT 10.0; Win64; x64) AppleWebKit/537.36 (KHTML, like Gecko) Chrome/128.0.0.0 YaBrowser/24.10.0.0 Safari/537.36" version="24.8.9">
  <diagram name="Страница — 1" id="aVIj9qUEST13j_-yVXe9">
    <mxGraphModel dx="1155" dy="639" grid="0" gridSize="10" guides="1" tooltips="1" connect="1" arrows="1" fold="1" page="1" pageScale="1" pageWidth="827" pageHeight="1169" math="0" shadow="0">
      <root>
        <mxCell id="0" />
        <mxCell id="1" parent="0" />
        <mxCell id="K872ePAgzn2kTXlysSnF-8" value="" style="edgeStyle=orthogonalEdgeStyle;rounded=0;orthogonalLoop=1;jettySize=auto;html=1;strokeWidth=2;fontStyle=1" parent="1" source="K872ePAgzn2kTXlysSnF-1" target="K872ePAgzn2kTXlysSnF-5" edge="1">
          <mxGeometry relative="1" as="geometry" />
        </mxCell>
        <mxCell id="K872ePAgzn2kTXlysSnF-1" value="начало" style="rounded=1;whiteSpace=wrap;html=1;strokeWidth=2;fontStyle=1" parent="1" vertex="1">
          <mxGeometry x="70" y="30" width="120" height="60" as="geometry" />
        </mxCell>
        <mxCell id="K872ePAgzn2kTXlysSnF-11" value="" style="edgeStyle=orthogonalEdgeStyle;rounded=0;orthogonalLoop=1;jettySize=auto;html=1;strokeWidth=2;fontStyle=1;entryX=0.5;entryY=0;entryDx=0;entryDy=0;exitX=0.5;exitY=1;exitDx=0;exitDy=0;" parent="1" source="nj6uA2wCsfbK7R9A-fk5-6" edge="1" target="nj6uA2wCsfbK7R9A-fk5-2">
          <mxGeometry relative="1" as="geometry">
            <mxPoint x="130.0000000000001" y="292" as="targetPoint" />
            <mxPoint x="130" y="247" as="sourcePoint" />
            <Array as="points" />
          </mxGeometry>
        </mxCell>
        <mxCell id="K872ePAgzn2kTXlysSnF-7" value="" style="edgeStyle=orthogonalEdgeStyle;rounded=0;orthogonalLoop=1;jettySize=auto;html=1;strokeWidth=2;fontStyle=1;entryX=0.505;entryY=0.012;entryDx=0;entryDy=0;entryPerimeter=0;" parent="1" source="K872ePAgzn2kTXlysSnF-5" target="nj6uA2wCsfbK7R9A-fk5-6" edge="1">
          <mxGeometry relative="1" as="geometry">
            <mxPoint x="130" y="187" as="targetPoint" />
          </mxGeometry>
        </mxCell>
        <mxCell id="K872ePAgzn2kTXlysSnF-5" value="| %s | ...,&lt;div&gt;heads, ...&lt;/div&gt;" style="shape=parallelogram;perimeter=parallelogramPerimeter;whiteSpace=wrap;html=1;fixedSize=1;strokeWidth=2;fontStyle=1" parent="1" vertex="1">
          <mxGeometry x="57.5" y="108" width="145" height="60" as="geometry" />
        </mxCell>
        <mxCell id="K872ePAgzn2kTXlysSnF-47" value="да" style="text;html=1;align=center;verticalAlign=middle;whiteSpace=wrap;rounded=0;strokeWidth=2;fontStyle=1" parent="1" vertex="1">
          <mxGeometry x="120" y="253" width="60" height="30" as="geometry" />
        </mxCell>
        <mxCell id="K872ePAgzn2kTXlysSnF-48" value="нет" style="text;html=1;align=center;verticalAlign=middle;whiteSpace=wrap;rounded=0;strokeWidth=2;fontStyle=1" parent="1" vertex="1">
          <mxGeometry x="162" y="196" width="60" height="30" as="geometry" />
        </mxCell>
        <mxCell id="r6vwcfptNdC3Q16Bk5a1-40" value="конец" style="rounded=1;whiteSpace=wrap;html=1;strokeWidth=2;fontStyle=1" parent="1" vertex="1">
          <mxGeometry x="270" y="307" width="120" height="60" as="geometry" />
        </mxCell>
        <mxCell id="nj6uA2wCsfbK7R9A-fk5-13" value="" style="edgeStyle=orthogonalEdgeStyle;rounded=0;orthogonalLoop=1;jettySize=auto;html=1;fontStyle=1;strokeWidth=2;" edge="1" parent="1" source="cSjah0AEVabmtViPewjv-1" target="nj6uA2wCsfbK7R9A-fk5-4">
          <mxGeometry relative="1" as="geometry" />
        </mxCell>
        <mxCell id="cSjah0AEVabmtViPewjv-1" value="| %s | ...,&lt;div&gt;cds[i], ...&lt;/div&gt;" style="shape=parallelogram;perimeter=parallelogramPerimeter;whiteSpace=wrap;html=1;fixedSize=1;strokeWidth=2;fontStyle=1" parent="1" vertex="1">
          <mxGeometry x="257.5" y="121" width="145" height="60" as="geometry" />
        </mxCell>
        <mxCell id="cSjah0AEVabmtViPewjv-4" value="" style="edgeStyle=orthogonalEdgeStyle;rounded=0;orthogonalLoop=1;jettySize=auto;html=1;strokeWidth=2;fontStyle=1;entryX=0;entryY=0.5;entryDx=0;entryDy=0;exitX=0;exitY=0.5;exitDx=0;exitDy=0;" parent="1" source="nj6uA2wCsfbK7R9A-fk5-7" target="nj6uA2wCsfbK7R9A-fk5-6" edge="1">
          <mxGeometry relative="1" as="geometry">
            <mxPoint x="70" y="217" as="targetPoint" />
            <mxPoint x="6" y="489" as="sourcePoint" />
            <Array as="points">
              <mxPoint x="54" y="392" />
              <mxPoint x="54" y="225" />
            </Array>
          </mxGeometry>
        </mxCell>
        <mxCell id="nj6uA2wCsfbK7R9A-fk5-8" value="" style="edgeStyle=orthogonalEdgeStyle;rounded=0;orthogonalLoop=1;jettySize=auto;html=1;fontStyle=1;strokeWidth=2;" edge="1" parent="1" source="nj6uA2wCsfbK7R9A-fk5-2" target="nj6uA2wCsfbK7R9A-fk5-7">
          <mxGeometry relative="1" as="geometry" />
        </mxCell>
        <mxCell id="nj6uA2wCsfbK7R9A-fk5-2" value="CD* current = head" style="rounded=0;whiteSpace=wrap;html=1;fontStyle=1;strokeWidth=2;" vertex="1" parent="1">
          <mxGeometry x="70" y="281" width="120" height="60" as="geometry" />
        </mxCell>
        <mxCell id="nj6uA2wCsfbK7R9A-fk5-4" value="current = current-&amp;gt;next" style="rounded=0;whiteSpace=wrap;html=1;fontStyle=1;strokeWidth=2;" vertex="1" parent="1">
          <mxGeometry x="270" y="201" width="120" height="60" as="geometry" />
        </mxCell>
        <mxCell id="nj6uA2wCsfbK7R9A-fk5-6" value="current != NULL" style="rhombus;whiteSpace=wrap;html=1;fontStyle=1;strokeWidth=2;" vertex="1" parent="1">
          <mxGeometry x="81" y="187" width="98" height="77" as="geometry" />
        </mxCell>
        <mxCell id="nj6uA2wCsfbK7R9A-fk5-7" value="1" style="ellipse;whiteSpace=wrap;html=1;aspect=fixed;fontStyle=1;strokeWidth=2;" vertex="1" parent="1">
          <mxGeometry x="97" y="359" width="66" height="66" as="geometry" />
        </mxCell>
        <mxCell id="nj6uA2wCsfbK7R9A-fk5-9" value="" style="edgeStyle=orthogonalEdgeStyle;rounded=0;orthogonalLoop=1;jettySize=auto;html=1;strokeWidth=2;fontStyle=1;entryX=1;entryY=0.5;entryDx=0;entryDy=0;exitX=0.25;exitY=1;exitDx=0;exitDy=0;" edge="1" parent="1" source="K872ePAgzn2kTXlysSnF-48" target="nj6uA2wCsfbK7R9A-fk5-7">
          <mxGeometry relative="1" as="geometry">
            <mxPoint x="91" y="236" as="targetPoint" />
            <mxPoint x="107" y="402" as="sourcePoint" />
            <Array as="points">
              <mxPoint x="207" y="226" />
              <mxPoint x="207" y="392" />
            </Array>
          </mxGeometry>
        </mxCell>
        <mxCell id="nj6uA2wCsfbK7R9A-fk5-12" value="" style="edgeStyle=orthogonalEdgeStyle;rounded=0;orthogonalLoop=1;jettySize=auto;html=1;entryX=0.5;entryY=0;entryDx=0;entryDy=0;fontStyle=1;strokeWidth=2;" edge="1" parent="1" source="nj6uA2wCsfbK7R9A-fk5-10" target="cSjah0AEVabmtViPewjv-1">
          <mxGeometry relative="1" as="geometry" />
        </mxCell>
        <mxCell id="nj6uA2wCsfbK7R9A-fk5-10" value="1" style="ellipse;whiteSpace=wrap;html=1;aspect=fixed;fontStyle=1;strokeWidth=2;" vertex="1" parent="1">
          <mxGeometry x="297" y="27" width="66" height="66" as="geometry" />
        </mxCell>
        <mxCell id="nj6uA2wCsfbK7R9A-fk5-15" value="" style="edgeStyle=orthogonalEdgeStyle;rounded=0;orthogonalLoop=1;jettySize=auto;html=1;strokeWidth=2;fontStyle=1;entryX=0.5;entryY=0;entryDx=0;entryDy=0;exitX=1;exitY=0.5;exitDx=0;exitDy=0;" edge="1" parent="1" source="nj6uA2wCsfbK7R9A-fk5-10" target="r6vwcfptNdC3Q16Bk5a1-40">
          <mxGeometry relative="1" as="geometry">
            <mxPoint x="410" y="228" as="targetPoint" />
            <mxPoint x="424" y="62" as="sourcePoint" />
            <Array as="points">
              <mxPoint x="363" y="62" />
              <mxPoint x="420" y="62" />
              <mxPoint x="420" y="287" />
              <mxPoint x="330" y="287" />
            </Array>
          </mxGeometry>
        </mxCell>
        <mxCell id="nj6uA2wCsfbK7R9A-fk5-16" value="" style="edgeStyle=orthogonalEdgeStyle;rounded=0;orthogonalLoop=1;jettySize=auto;html=1;strokeWidth=2;fontStyle=1;entryX=0;entryY=0.5;entryDx=0;entryDy=0;exitX=0.5;exitY=1;exitDx=0;exitDy=0;" edge="1" parent="1" source="nj6uA2wCsfbK7R9A-fk5-4" target="nj6uA2wCsfbK7R9A-fk5-10">
          <mxGeometry relative="1" as="geometry">
            <mxPoint x="261" y="102" as="targetPoint" />
            <mxPoint x="277" y="268" as="sourcePoint" />
            <Array as="points">
              <mxPoint x="330" y="277" />
              <mxPoint x="240" y="277" />
              <mxPoint x="240" y="60" />
            </Array>
          </mxGeometry>
        </mxCell>
      </root>
    </mxGraphModel>
  </diagram>
</mxfile>
